# xmcd
#
# Track frame offsets: 
#        150
#        910
#        14153
#        30886
#        44399
#        59893
#        63391
#        81953
#        83976
#        98299
#        100896
#        112689
#        125683
#        127147
#        131648
#        145147
#        155341
#        157494
#        171917
#        178590
#        192307
#
# Disc length: 2611 seconds
#
# Revision: 2
# Processed by: cddbd v1.5.2PL0 Copyright (c) Steve Scherf et al.
# Submitted via: ExactAudioCopy v0.99pb3
#
DISCID=1f0a3115
DTITLE=Mighty Mo Rodgers - Dispatches From The Moon
DYEAR=2009
DGENRE=Blues
TTITLE0=That's One Small Step For Man...
TTITLE1=Blues For A Blue Planet (The Last Tango)
TTITLE2=Dispatches FromThe Moon
TTITLE3=Moonwalking On The Moon
TTITLE4=Blues Makes The World Go 'Round
TTITLE5=Caller #1 Love Lines
TTITLE6=Blues Is a Woman Woe Is A Man
TTITLE7=Caller #2 Don't Forget
TTITLE8=Tomorrow Isn't Promised
TTITLE9=Coming To You Live...
TTITLE10=Blues In The White House
TTITLE11=Continental  Blues
TTITLE12=Call And Response
TTITLE13=Faraway Blues
TTITLE14=Africana Blues
TTITLE15=Political Science Fiction
TTITLE16=Caller #5 Gimme Your Jive
TTITLE17=All The World's Problems (Can Be Solved In A Bar)
TTITLE18=Dispatches (Part 2)
TTITLE19=21st Century Blues
TTITLE20=dispatchesfromthemoon.com
EXTD=YEAR: 2009
EXTT0=
EXTT1=
EXTT2=
EXTT3=
EXTT4=
EXTT5=
EXTT6=
EXTT7=
EXTT8=
EXTT9=
EXTT10=
EXTT11=
EXTT12=
EXTT13=
EXTT14=
EXTT15=
EXTT16=
EXTT17=
EXTT18=
EXTT19=
EXTT20=
PLAYORDER=
